HIERARCHY
ROOT Hips
{
 OFFSET 0.000000 0.000000 0.000000
 CHANNELS 6 Xposition Yposition Zposition Yrotation Xrotation Zrotation
 JOINT Chest
 {
  OFFSET 0.000000 10.080317 -0.001081
  CHANNELS 3 Yrotation Xrotation Zrotation
  JOINT Chest2
  {
   OFFSET 0.000000 11.096852 0.001963
   CHANNELS 3 Yrotation Xrotation Zrotation
   JOINT Chest3
   {
    OFFSET 0.000000 10.026525 0.000000
    CHANNELS 3 Yrotation Xrotation Zrotation
    JOINT Chest4
    {
     OFFSET 0.000000 10.026525 0.000000
     CHANNELS 3 Yrotation Xrotation Zrotation
     JOINT Neck
     {
      OFFSET 0.000000 14.108171 0.000000
      CHANNELS 3 Yrotation Xrotation Zrotation
      JOINT Head
      {
       OFFSET 0.000000 9.333493 0.004668
       CHANNELS 3 Yrotation Xrotation Zrotation
       End Site
       {
        OFFSET 0.000000 17.851786 0.002438
       }
      }
     }
     JOINT RightCollar
     {
      OFFSET -3.071622 7.873185 0.000000
      CHANNELS 3 Yrotation Xrotation Zrotation
      JOINT RightShoulder
      {
       OFFSET -14.378659 0.000000 0.000000
       CHANNELS 3 Yrotation Xrotation Zrotation
       JOINT RightElbow
       {
        OFFSET -30.778728 0.000000 0.000000
        CHANNELS 3 Yrotation Xrotation Zrotation
        JOINT RightWrist
        {
         OFFSET -25.164217 0.000000 0.000000
         CHANNELS 3 Yrotation Xrotation Zrotation
         End Site
         {
          OFFSET -18.796788 0.000000 0.000000
         }
        }
       }
      }
     }
     JOINT LeftCollar
     {
      OFFSET 3.071622 7.873185 0.000000
      CHANNELS 3 Yrotation Xrotation Zrotation
      JOINT LeftShoulder
      {
       OFFSET 14.378659 0.000000 0.000000
       CHANNELS 3 Yrotation Xrotation Zrotation
       JOINT LeftElbow
       {
        OFFSET 30.778728 0.000000 0.000000
        CHANNELS 3 Yrotation Xrotation Zrotation
        JOINT LeftWrist
        {
         OFFSET 25.164217 0.000000 0.000000
         CHANNELS 3 Yrotation Xrotation Zrotation
         End Site
         {
          OFFSET 18.796788 0.000000 0.000000
         }
        }
       }
      }
     }
    }
   }
  }
 }
 JOINT RightHip
 {
  OFFSET -8.194923 0.005295 0.000540
  CHANNELS 3 Yrotation Xrotation Zrotation
  JOINT RightKnee
  {
   OFFSET 0.000000 -42.473320 -0.000511
   CHANNELS 3 Yrotation Xrotation Zrotation
   JOINT RightAnkle
   {
    OFFSET 0.000000 -41.474259 -0.000865
    CHANNELS 3 Yrotation Xrotation Zrotation
    JOINT RightToe
    {
     OFFSET 0.000000 -7.354994 16.712725
     CHANNELS 3 Yrotation Xrotation Zrotation
     End Site
     {
      OFFSET 0.000000 -1.553903 6.764158
     }
    }
   }
  }
 }
 JOINT LeftHip
 {
  OFFSET 8.194923 0.005295 0.000540
  CHANNELS 3 Yrotation Xrotation Zrotation
  JOINT LeftKnee
  {
   OFFSET 0.000000 -42.473320 -0.000511
   CHANNELS 3 Yrotation Xrotation Zrotation
   JOINT LeftAnkle
   {
    OFFSET 0.000000 -41.474259 -0.000865
    CHANNELS 3 Yrotation Xrotation Zrotation
    JOINT LeftToe
    {
     OFFSET 0.000000 -7.354994 16.712725
     CHANNELS 3 Yrotation Xrotation Zrotation
     End Site
     {
      OFFSET 0.000000 -1.553903 6.764158
     }
    }
   }
  }
 }
}
MOTION
Frames: 5
Frame Time: 0.016667
0.000000 91.111157 0.000000 0.000000 -5.826342 0.000000 0.000000 11.116423 0.000000 0.000000 -5.290081 0.000000 0.000000 0.000000 0.000000 0.000000 0.000000 0.000000 0.000000 12.665069 0.000000 0.000000 0.575450 0.000000 0.000000 0.000000 0.000000 0.000000 0.000000 0.000000 2.337306 0.000000 0.000000 -2.337306 0.000000 0.000000 0.000000 0.000000 0.000000 0.000000 0.000000 0.000000 -2.337306 0.000000 0.000000 2.337306 0.000000 0.000000 0.000000 8.578828 0.000000 0.000000 1.905768 0.000000 0.000000 -4.658254 0.000000 0.000000 0.000000 0.000000 0.000000 8.578828 0.000000 0.000000 1.905768 0.000000 0.000000 -4.658254 0.000000 0.000000 0.000000 0.000000
-34.771253 92.875406 -13.637381 -87.694594 -2.375702 -0.075419 -0.486305 2.323423 1.201836 -0.223876 1.032706 0.467002 -0.223876 1.032706 0.467002 -0.168691 0.774359 0.350620 -2.161614 17.925636 -0.624425 -3.771927 -2.886026 -0.424781 -3.131127 4.342929 17.029821 44.472348 0.037205 62.753185 16.648908 11.772133 -0.315969 5.553426 1.505234 -12.597655 -13.483664 12.800317 -10.920513 -37.615506 10.054654 -47.576148 -26.031490 -10.605461 -7.019264 14.225728 -12.716105 8.583452 -6.888256 2.795767 0.006279 9.872964 4.931440 -1.218128 -2.946370 -4.435525 1.730437 -0.028312 0.181669 -0.011984 5.523290 6.467833 2.946883 2.171578 1.633901 -0.297527 2.906230 -5.304555 -3.343779 0.001581 -0.189615 -0.006036
-34.799134 92.870098 -13.661362 -87.612479 -2.436453 -0.063355 -0.493131 2.317702 1.209349 -0.226082 1.030659 0.470802 -0.226082 1.030659 0.470802 -0.170351 0.772821 0.353473 -2.149769 17.992388 -0.604332 -3.756047 -2.761758 -0.393415 -3.035065 4.327435 17.058620 44.572689 0.007403 62.656256 16.327254 11.869537 -0.320534 5.534615 1.526579 -12.523505 -13.570191 12.703375 -10.973029 -37.634660 9.998760 -47.381475 -25.874725 -10.474307 -7.040811 14.252655 -12.687899 8.570077 -6.904860 2.874269 0.010130 9.857645 4.954455 -1.235921 -2.974651 -4.485555 1.722928 -0.029937 0.186246 -0.009630 5.510379 6.502821 2.966864 2.143628 1.699855 -0.302732 2.871306 -5.346149 -3.354228 0.002228 -0.187283 -0.010038
-34.832612 92.866290 -13.682384 -87.531933 -2.498244 -0.050816 -0.504261 2.309398 1.216229 -0.230221 1.026368 0.475494 -0.230221 1.026368 0.475494 -0.173460 0.769597 0.356998 -2.122527 18.073842 -0.590475 -3.709553 -2.610607 -0.379019 -2.942497 4.321843 17.088113 44.683352 -0.001099 62.577166 15.954843 11.917868 -0.326952 5.525487 1.535915 -12.455115 -13.627666 12.613221 -11.021175 -37.629427 9.956673 -47.233175 -25.720561 -10.378382 -7.070136 14.272142 -12.690134 8.577558 -6.928400 2.950691 0.009065 9.835486 4.989895 -1.247105 -2.991494 -4.543782 1.712397 -0.032616 0.187921 -0.007670 5.507670 6.549228 2.988562 2.113567 1.750296 -0.315063 2.842444 -5.378759 -3.361937 0.003514 -0.187842 -0.011398
-34.864485 92.864195 -13.699214 -87.448668 -2.556654 -0.040252 -0.517908 2.302722 1.232433 -0.236692 1.023599 0.483735 -0.236692 1.023599 0.483735 -0.178325 0.767513 0.363188 -2.105554 18.165863 -0.575797 -3.682120 -2.439648 -0.359918 -2.864546 4.323586 17.091691 44.757621 -0.059460 62.529980 15.530325 11.954331 -0.357141 5.521766 1.549570 -12.406694 -13.688702 12.517112 -11.069833 -37.575442 9.914336 -47.122244 -25.559550 -10.331536 -7.082330 14.281650 -12.686119 8.575613 -6.960249 3.016631 0.008131 9.818217 5.036192 -1.258593 -3.011618 -4.599028 1.712430 -0.035348 0.183588 -0.011741 5.515471 6.586479 3.011726 2.059639 1.808829 -0.327129 2.811033 -5.408158 -3.371054 0.004933 -0.193709 -0.009416
